<svg xmlns="http://www.w3.org/2000/svg" xmlns:xlink="http://www.w3.org/1999/xlink" width="500" zoomAndPan="magnify" viewBox="0 0 375 374.999991" height="500" preserveAspectRatio="xMidYMid meet" version="1.0"><defs><g/><clipPath id="f3e9343f21"><path d="M 0.28125 0 L 223 0 L 223 375 L 0.28125 375 Z M 0.28125 0 " clip-rule="nonzero"/></clipPath><clipPath id="c21dd454e3"><rect x="0" width="223" y="0" height="375"/></clipPath><clipPath id="1f6839d210"><path d="M 130 0 L 343.480469 0 L 343.480469 372 L 130 372 Z M 130 0 " clip-rule="nonzero"/></clipPath><clipPath id="33b36902b2"><rect x="0" width="214" y="0" height="372"/></clipPath><clipPath id="e087775224"><rect x="0" width="344" y="0" height="375"/></clipPath></defs><g transform="matrix(1, 0, 0, 1, 11, 0)"><g clip-path="url(#e087775224)"><g clip-path="url(#f3e9343f21)"><g transform="matrix(1, 0, 0, 1, -0.000000000000001776, 0)"><g clip-path="url(#c21dd454e3)"><g fill="#419c65" fill-opacity="1"><g transform="translate(0.840867, 296.7348)"><g><path d="M 121.265625 5.03125 C 100.734375 5.03125 82.351562 0.109375 66.125 -9.734375 C 49.894531 -19.578125 37.222656 -32.976562 28.109375 -49.9375 C 19.003906 -66.90625 14.453125 -85.757812 14.453125 -106.5 C 14.453125 -127.019531 18.585938 -146.285156 26.859375 -164.296875 C 35.128906 -182.304688 47.484375 -196.910156 63.921875 -208.109375 C 80.367188 -219.316406 100.210938 -224.921875 123.453125 -224.921875 C 146.492188 -224.921875 167.644531 -218.535156 186.90625 -205.765625 L 185.34375 -222.71875 L 202.3125 -222.71875 L 202.3125 -149.84375 L 191 -149.84375 C 188.90625 -169.320312 182.046875 -184.554688 170.421875 -195.546875 C 158.796875 -206.546875 143.875 -212.046875 125.65625 -212.046875 C 110.789062 -212.046875 97.226562 -207.910156 84.96875 -199.640625 C 72.71875 -191.367188 63.03125 -179.585938 55.90625 -164.296875 C 48.789062 -149.003906 45.234375 -131.304688 45.234375 -111.203125 C 45.234375 -91.941406 49.003906 -74.71875 56.546875 -59.53125 C 64.085938 -44.34375 74.242188 -32.507812 87.015625 -24.03125 C 99.785156 -15.550781 113.921875 -11.3125 129.421875 -11.3125 C 143.453125 -11.3125 156.957031 -14.453125 169.9375 -20.734375 C 182.925781 -27.015625 193.613281 -35.914062 202 -47.4375 L 210.15625 -40.84375 C 198.007812 -23.875 184.082031 -11.984375 168.375 -5.171875 C 152.664062 1.628906 136.960938 5.03125 121.265625 5.03125 Z M 121.265625 5.03125 "/></g></g></g></g></g></g><g clip-path="url(#1f6839d210)"><g transform="matrix(1, 0, 0, 1, 130, 0)"><g clip-path="url(#33b36902b2)"><g fill="#000000" fill-opacity="1"><g transform="translate(10.925363, 281.090211)"><g><path d="M 198.222656 -6.910156 L 173.402344 -6.910156 L 96.753906 -215.8125 L 93.300781 -215.8125 L 19.164062 -6.910156 L -5.65625 -6.910156 L -5.65625 0 L 48.691406 0 L 48.691406 -6.910156 L 26.703125 -6.910156 L 47.121094 -66.597656 L 119.058594 -66.597656 L 140.734375 -6.910156 L 115.601562 -6.910156 L 115.601562 0 L 198.222656 0 Z M 50.261719 -74.136719 L 82.304688 -164.292969 L 83.246094 -164.292969 L 116.546875 -74.136719 Z M 50.261719 -74.136719 "/></g></g></g></g></g></g></g></g></svg>