<svg xmlns="http://www.w3.org/2000/svg" xmlns:xlink="http://www.w3.org/1999/xlink" width="2200" zoomAndPan="magnify" viewBox="0 0 1650 449.999984" height="600" preserveAspectRatio="xMidYMid meet" version="1.0"><defs><g/><clipPath id="93905c8af5"><path d="M 24.144531 420.972656 L 1627.644531 420.972656 L 1627.644531 450 L 24.144531 450 Z M 24.144531 420.972656 " clip-rule="nonzero"/></clipPath></defs><g fill="#419c65" fill-opacity="1"><g transform="translate(342.807519, 144.825949)"><g><path d="M 67.71875 2.8125 C 56.25 2.8125 45.984375 0.0625 36.921875 -5.4375 C 27.859375 -10.9375 20.78125 -18.421875 15.6875 -27.890625 C 10.601562 -37.359375 8.0625 -47.882812 8.0625 -59.46875 C 8.0625 -70.925781 10.367188 -81.679688 14.984375 -91.734375 C 19.609375 -101.796875 26.507812 -109.957031 35.6875 -116.21875 C 44.875 -122.476562 55.957031 -125.609375 68.9375 -125.609375 C 81.800781 -125.609375 93.613281 -122.039062 104.375 -114.90625 L 103.5 -124.375 L 112.96875 -124.375 L 112.96875 -83.671875 L 106.65625 -83.671875 C 105.488281 -94.546875 101.660156 -103.050781 95.171875 -109.1875 C 88.679688 -115.332031 80.347656 -118.40625 70.171875 -118.40625 C 61.867188 -118.40625 54.296875 -116.09375 47.453125 -111.46875 C 40.609375 -106.851562 35.195312 -100.273438 31.21875 -91.734375 C 27.25 -83.203125 25.265625 -73.320312 25.265625 -62.09375 C 25.265625 -51.332031 27.367188 -41.710938 31.578125 -33.234375 C 35.785156 -24.765625 41.457031 -18.160156 48.59375 -13.421875 C 55.726562 -8.679688 63.625 -6.3125 72.28125 -6.3125 C 80.113281 -6.3125 87.65625 -8.066406 94.90625 -11.578125 C 102.15625 -15.085938 108.117188 -20.054688 112.796875 -26.484375 L 117.359375 -22.8125 C 110.578125 -13.332031 102.800781 -6.691406 94.03125 -2.890625 C 85.257812 0.910156 76.488281 2.8125 67.71875 2.8125 Z M 67.71875 2.8125 "/></g></g></g><g fill="#419c65" fill-opacity="1"><g transform="translate(466.469024, 144.825949)"><g><path d="M 70.515625 2.8125 C 56.484375 2.8125 44.789062 -0.285156 35.4375 -6.484375 C 26.082031 -12.679688 19.179688 -20.660156 14.734375 -30.421875 C 10.285156 -40.191406 8.0625 -50.515625 8.0625 -61.390625 C 8.0625 -71.804688 10.367188 -81.925781 14.984375 -91.75 C 19.609375 -101.570312 26.507812 -109.671875 35.6875 -116.046875 C 44.875 -122.421875 56.015625 -125.609375 69.109375 -125.609375 C 82.566406 -125.609375 94 -122.421875 103.40625 -116.046875 C 112.820312 -109.671875 119.867188 -101.570312 124.546875 -91.75 C 129.222656 -81.925781 131.5625 -71.804688 131.5625 -61.390625 C 131.5625 -51.097656 129.25 -41.007812 124.625 -31.125 C 120.007812 -21.25 113.113281 -13.125 103.9375 -6.75 C 94.757812 -0.375 83.617188 2.8125 70.515625 2.8125 Z M 70.875 -4.390625 C 79.988281 -4.390625 87.789062 -6.988281 94.28125 -12.1875 C 100.78125 -17.394531 105.695312 -24.09375 109.03125 -32.28125 C 112.363281 -40.46875 114.03125 -49.0625 114.03125 -58.0625 C 114.03125 -68 112.210938 -77.617188 108.578125 -86.921875 C 104.953125 -96.222656 99.691406 -103.820312 92.796875 -109.71875 C 85.898438 -115.625 77.832031 -118.578125 68.59375 -118.578125 C 59.46875 -118.578125 51.628906 -115.972656 45.078125 -110.765625 C 38.535156 -105.566406 33.597656 -98.816406 30.265625 -90.515625 C 26.929688 -82.210938 25.265625 -73.5625 25.265625 -64.5625 C 25.265625 -55.320312 26.957031 -46.050781 30.34375 -36.75 C 33.738281 -27.457031 38.882812 -19.738281 45.78125 -13.59375 C 52.6875 -7.457031 61.050781 -4.390625 70.875 -4.390625 Z M 70.875 -4.390625 "/></g></g></g><g fill="#419c65" fill-opacity="1"><g transform="translate(606.794133, 144.825949)"><g><path d="M -1.046875 -5.78125 C 1.867188 -5.78125 4.203125 -6.453125 5.953125 -7.796875 C 7.710938 -9.148438 9.144531 -10.90625 10.25 -13.0625 C 11.363281 -15.226562 12.679688 -18.476562 14.203125 -22.8125 L 15.96875 -27.71875 L 52.09375 -126.125 L 56.3125 -126.125 L 95.421875 -26.3125 C 96.710938 -23.15625 97.828125 -19.734375 98.765625 -16.046875 C 99.703125 -12.367188 100.109375 -9.359375 99.984375 -7.015625 L 111.921875 -7.71875 L 111.921875 0 L 71.75 0 L 71.75 -5.78125 C 78.644531 -5.90625 82.09375 -8.710938 82.09375 -14.203125 C 82.09375 -16.429688 81.507812 -19.179688 80.34375 -22.453125 L 74.203125 -38.9375 L 28.59375 -37.890625 C 26.84375 -33.097656 24.796875 -26.84375 22.453125 -19.125 C 21.285156 -15.257812 19.820312 -11.222656 18.0625 -7.015625 L 31.75 -7.71875 L 31.75 0 L -1.046875 0 Z M 71.75 -45.4375 L 59.296875 -78.9375 L 51.40625 -100.515625 L 51.046875 -100.515625 L 43.6875 -80.6875 L 34.203125 -54.03125 L 31.21875 -45.4375 Z M 71.75 -45.4375 "/></g></g></g><g fill="#419c65" fill-opacity="1"><g transform="translate(717.650981, 144.825949)"><g><path d="M 67.71875 2.8125 C 56.25 2.8125 45.984375 0.0625 36.921875 -5.4375 C 27.859375 -10.9375 20.78125 -18.421875 15.6875 -27.890625 C 10.601562 -37.359375 8.0625 -47.882812 8.0625 -59.46875 C 8.0625 -70.925781 10.367188 -81.679688 14.984375 -91.734375 C 19.609375 -101.796875 26.507812 -109.957031 35.6875 -116.21875 C 44.875 -122.476562 55.957031 -125.609375 68.9375 -125.609375 C 81.800781 -125.609375 93.613281 -122.039062 104.375 -114.90625 L 103.5 -124.375 L 112.96875 -124.375 L 112.96875 -83.671875 L 106.65625 -83.671875 C 105.488281 -94.546875 101.660156 -103.050781 95.171875 -109.1875 C 88.679688 -115.332031 80.347656 -118.40625 70.171875 -118.40625 C 61.867188 -118.40625 54.296875 -116.09375 47.453125 -111.46875 C 40.609375 -106.851562 35.195312 -100.273438 31.21875 -91.734375 C 27.25 -83.203125 25.265625 -73.320312 25.265625 -62.09375 C 25.265625 -51.332031 27.367188 -41.710938 31.578125 -33.234375 C 35.785156 -24.765625 41.457031 -18.160156 48.59375 -13.421875 C 55.726562 -8.679688 63.625 -6.3125 72.28125 -6.3125 C 80.113281 -6.3125 87.65625 -8.066406 94.90625 -11.578125 C 102.15625 -15.085938 108.117188 -20.054688 112.796875 -26.484375 L 117.359375 -22.8125 C 110.578125 -13.332031 102.800781 -6.691406 94.03125 -2.890625 C 85.257812 0.910156 76.488281 2.8125 67.71875 2.8125 Z M 67.71875 2.8125 "/></g></g></g><g fill="#419c65" fill-opacity="1"><g transform="translate(841.312486, 144.825949)"><g><path d="M 9.640625 -5.78125 C 13.734375 -5.90625 16.65625 -6.84375 18.40625 -8.59375 C 20.164062 -10.351562 21.160156 -12.429688 21.390625 -14.828125 C 21.628906 -17.222656 21.75 -21.398438 21.75 -27.359375 L 21.75 -103.140625 C 21.75 -108.054688 21.925781 -112.269531 22.28125 -115.78125 L 9.640625 -115.078125 L 9.640625 -122.796875 L 49.125 -122.796875 L 49.125 -117 C 45.03125 -116.882812 42.101562 -115.945312 40.34375 -114.1875 C 38.59375 -112.4375 37.597656 -110.363281 37.359375 -107.96875 C 37.128906 -105.570312 37.015625 -101.390625 37.015625 -95.421875 L 37.015625 -66.3125 L 99.8125 -66.3125 L 99.8125 -103.140625 C 99.8125 -108.054688 99.988281 -112.269531 100.34375 -115.78125 L 87.71875 -115.078125 L 87.71875 -122.796875 L 127.1875 -122.796875 L 127.1875 -117 C 123.09375 -116.882812 120.164062 -115.945312 118.40625 -114.1875 C 116.65625 -112.4375 115.660156 -110.363281 115.421875 -107.96875 C 115.191406 -105.570312 115.078125 -101.390625 115.078125 -95.421875 L 115.078125 -20.875 C 115.078125 -14.675781 114.898438 -10.054688 114.546875 -7.015625 L 127.1875 -7.71875 L 127.1875 0 L 87.71875 0 L 87.71875 -5.78125 C 91.800781 -5.90625 94.71875 -6.84375 96.46875 -8.59375 C 98.226562 -10.351562 99.222656 -12.429688 99.453125 -14.828125 C 99.691406 -17.222656 99.8125 -21.398438 99.8125 -27.359375 L 99.8125 -59.296875 L 37.015625 -58.59375 L 37.015625 -20.875 C 37.015625 -14.675781 36.835938 -10.054688 36.484375 -7.015625 L 49.125 -7.71875 L 49.125 0 L 9.640625 0 Z M 9.640625 -5.78125 "/></g></g></g><g fill="#419c65" fill-opacity="1"><g transform="translate(979.181878, 144.825949)"><g><path d="M 9.640625 -5.78125 C 13.734375 -5.90625 16.65625 -6.84375 18.40625 -8.59375 C 20.164062 -10.351562 21.160156 -12.429688 21.390625 -14.828125 C 21.628906 -17.222656 21.75 -21.398438 21.75 -27.359375 L 21.75 -103.140625 C 21.75 -108.054688 21.925781 -112.269531 22.28125 -115.78125 L 9.640625 -115.078125 L 9.640625 -122.796875 L 49.125 -122.796875 L 49.125 -117 C 45.03125 -116.882812 42.101562 -115.945312 40.34375 -114.1875 C 38.59375 -112.4375 37.597656 -110.363281 37.359375 -107.96875 C 37.128906 -105.570312 37.015625 -101.390625 37.015625 -95.421875 L 37.015625 -20.875 C 37.015625 -14.675781 36.835938 -10.054688 36.484375 -7.015625 L 49.125 -7.71875 L 49.125 0 L 9.640625 0 Z M 9.640625 -5.78125 "/></g></g></g><g fill="#419c65" fill-opacity="1"><g transform="translate(1038.995518, 144.825949)"><g><path d="M 29.46875 -99.46875 L 29.296875 -99.46875 L 29.828125 -24.390625 C 29.828125 -16.546875 29.707031 -10.753906 29.46875 -7.015625 L 42.09375 -7.71875 L 42.09375 0 L 10 0 L 10 -5.78125 C 14.675781 -5.78125 17.773438 -7.125 19.296875 -9.8125 C 20.816406 -12.507812 21.578125 -15.785156 21.578125 -19.640625 L 21.75 -115.78125 L 10 -115.078125 L 10 -122.796875 L 30.875 -122.796875 L 105.609375 -22.8125 L 105.78125 -22.8125 L 105.953125 -103.140625 C 105.953125 -108.054688 106.128906 -112.269531 106.484375 -115.78125 L 93.84375 -115.078125 L 93.84375 -122.796875 L 126.125 -122.796875 L 126.125 -117 C 122.613281 -116.882812 120.007812 -116.210938 118.3125 -114.984375 C 116.625 -113.753906 115.546875 -112.085938 115.078125 -109.984375 C 114.609375 -107.878906 114.375 -105.070312 114.375 -101.5625 L 114.375 -95.421875 L 114.03125 2.8125 L 105.609375 2.8125 Z M 29.46875 -99.46875 "/></g></g></g><g fill="#419c65" fill-opacity="1"><g transform="translate(1173.707665, 144.825949)"><g><path d="M 67.890625 2.8125 C 56.191406 2.8125 45.835938 0.328125 36.828125 -4.640625 C 27.828125 -9.617188 20.8125 -16.726562 15.78125 -25.96875 C 10.757812 -35.207031 8.25 -46.140625 8.25 -58.765625 C 8.25 -70.222656 10.554688 -81.039062 15.171875 -91.21875 C 19.796875 -101.394531 26.722656 -109.671875 35.953125 -116.046875 C 45.191406 -122.421875 56.304688 -125.609375 69.296875 -125.609375 C 75.609375 -125.609375 82.007812 -124.757812 88.5 -123.0625 C 94.988281 -121.363281 100.691406 -118.992188 105.609375 -115.953125 L 104.90625 -124.375 L 114.546875 -124.375 L 114.546875 -84.203125 L 108.234375 -84.203125 C 107.410156 -94.960938 103.519531 -103.378906 96.5625 -109.453125 C 89.601562 -115.535156 80.921875 -118.578125 70.515625 -118.578125 C 62.210938 -118.578125 54.640625 -116.179688 47.796875 -111.390625 C 40.960938 -106.597656 35.523438 -99.960938 31.484375 -91.484375 C 27.453125 -83.003906 25.4375 -73.441406 25.4375 -62.796875 C 25.4375 -51.804688 27.421875 -41.984375 31.390625 -33.328125 C 35.367188 -24.671875 40.925781 -17.882812 48.0625 -12.96875 C 55.195312 -8.0625 63.328125 -5.609375 72.453125 -5.609375 C 77.484375 -5.609375 82.65625 -6.335938 87.96875 -7.796875 C 93.289062 -9.265625 98.117188 -11.460938 102.453125 -14.390625 L 102.453125 -52.796875 L 90.171875 -52.09375 L 90.171875 -59.8125 L 129.8125 -59.8125 L 129.8125 -54.03125 C 124.195312 -54.03125 120.6875 -51.894531 119.28125 -47.625 C 117.882812 -43.351562 117.1875 -38.53125 117.1875 -33.15625 L 117.1875 -6.3125 L 112.453125 -6.3125 C 107.535156 -6.3125 101.21875 -4.789062 93.5 -1.75 C 89.988281 -0.351562 85.835938 0.753906 81.046875 1.578125 C 76.253906 2.398438 71.867188 2.8125 67.890625 2.8125 Z M 67.890625 2.8125 "/></g></g></g><g fill="#ffffff" fill-opacity="1"><g transform="translate(38.997683, 406.728292)"><g><path d="M 189.300781 -6.601562 L 165.601562 -6.601562 L 92.398438 -206.101562 L 89.101562 -206.101562 L 18.300781 -6.601562 L -5.398438 -6.601562 L -5.398438 0 L 46.5 0 L 46.5 -6.601562 L 25.5 -6.601562 L 45 -63.601562 L 113.699219 -63.601562 L 134.398438 -6.601562 L 110.398438 -6.601562 L 110.398438 0 L 189.300781 0 Z M 48 -70.800781 L 78.601562 -156.898438 L 79.5 -156.898438 L 111.300781 -70.800781 Z M 48 -70.800781 "/></g></g></g><g fill="#ffffff" fill-opacity="1"><g transform="translate(225.597361, 406.728292)"><g><path d="M 238.199219 -6.601562 L 214.199219 -6.601562 L 214.199219 -195 L 238.199219 -195 L 238.199219 -201.601562 L 180.898438 -201.601562 L 126.601562 -44.398438 L 125.398438 -44.398438 L 66.601562 -201.601562 L 7.800781 -201.601562 L 7.800781 -195 L 31.800781 -195 L 31.800781 -6.601562 L 7.800781 -6.601562 L 7.800781 0 L 63 0 L 63 -6.601562 L 39 -6.601562 L 39 -192.898438 L 112.800781 4.199219 L 117.300781 4.199219 L 184.199219 -190.199219 L 185.398438 -190.199219 L 185.398438 -6.601562 L 161.398438 -6.601562 L 161.398438 0 L 238.199219 0 Z M 238.199219 -6.601562 "/></g></g></g><g fill="#ffffff" fill-opacity="1"><g transform="translate(479.396876, 406.728292)"><g><path d="M 170.699219 -140.699219 C 170.699219 -167.398438 143.101562 -201.601562 86.699219 -201.601562 L 10.800781 -201.601562 L 10.800781 -195.300781 L 34.800781 -195.300781 L 34.800781 -6.601562 L 10.800781 -6.601562 L 10.800781 0 L 89.398438 0 L 89.398438 -6.601562 L 65.398438 -6.601562 L 65.398438 -89.398438 L 96 -89.398438 C 139.5 -89.398438 170.699219 -108.898438 170.699219 -140.699219 Z M 139.199219 -144 C 139.199219 -113.699219 123 -96 93.300781 -96 L 65.398438 -96 L 65.398438 -195.300781 L 84 -195.300781 C 123.601562 -195.300781 139.199219 -171.300781 139.199219 -144 Z M 139.199219 -144 "/></g></g></g><g fill="#ffffff" fill-opacity="1"><g transform="translate(659.39654, 406.728292)"><g><path d="M 174.300781 -65.398438 L 169.800781 -65.398438 C 164.699219 -24 137.101562 -6.601562 103.5 -6.601562 L 65.398438 -6.601562 L 65.398438 -195 L 89.398438 -195 L 89.398438 -201.601562 L 10.800781 -201.601562 L 10.800781 -195 L 34.800781 -195 L 34.800781 -6.601562 L 10.800781 -6.601562 L 10.800781 0 L 174.300781 0 Z M 174.300781 -65.398438 "/></g></g></g><g fill="#ffffff" fill-opacity="1"><g transform="translate(848.096188, 406.728292)"><g><path d="M 89.398438 -6.601562 L 65.398438 -6.601562 L 65.398438 -195 L 89.398438 -195 L 89.398438 -201.601562 L 10.800781 -201.601562 L 10.800781 -195 L 34.800781 -195 L 34.800781 -6.601562 L 10.800781 -6.601562 L 10.800781 0 L 89.398438 0 Z M 89.398438 -6.601562 "/></g></g></g><g fill="#ffffff" fill-opacity="1"><g transform="translate(950.095997, 406.728292)"><g><path d="M 165.898438 -201.601562 L 10.800781 -201.601562 L 10.800781 -195 L 34.800781 -195 L 34.800781 -6.601562 L 10.800781 -6.601562 L 10.800781 0 L 89.398438 0 L 89.398438 -6.601562 L 65.398438 -6.601562 L 65.398438 -99.898438 L 85.199219 -99.898438 C 106.5 -99.898438 123.300781 -85.199219 125.101562 -61.800781 L 129.601562 -61.800781 L 129.601562 -146.699219 L 125.101562 -146.699219 C 123.898438 -121.199219 106.5 -107.101562 83.398438 -107.101562 L 65.398438 -107.101562 L 65.398438 -195 L 102.300781 -195 C 133.800781 -195 155.398438 -181.800781 161.398438 -146.398438 L 165.898438 -146.398438 Z M 165.898438 -201.601562 "/></g></g></g><g fill="#ffffff" fill-opacity="1"><g transform="translate(1131.29569, 406.728292)"><g><path d="M 89.398438 -6.601562 L 65.398438 -6.601562 L 65.398438 -195 L 89.398438 -195 L 89.398438 -201.601562 L 10.800781 -201.601562 L 10.800781 -195 L 34.800781 -195 L 34.800781 -6.601562 L 10.800781 -6.601562 L 10.800781 0 L 89.398438 0 Z M 89.398438 -6.601562 "/></g></g></g><g fill="#ffffff" fill-opacity="1"><g transform="translate(1233.295499, 406.728292)"><g><path d="M 182.699219 -62.699219 L 178.199219 -62.699219 C 174.300781 -26.398438 139.800781 -6.601562 116.398438 -6.601562 L 65.398438 -6.601562 L 65.398438 -99.898438 L 80.101562 -99.898438 C 106.199219 -99.898438 121.800781 -86.101562 121.800781 -58.800781 L 126.300781 -58.800781 L 126.300781 -146.699219 L 121.800781 -146.699219 C 121.800781 -121.199219 103.199219 -107.101562 80.101562 -107.101562 L 65.398438 -107.101562 L 65.398438 -195 L 120.898438 -195 C 144.300781 -195 164.101562 -181.800781 166.800781 -151.199219 L 171.300781 -151.199219 L 171.300781 -201.601562 L 10.800781 -201.601562 L 10.800781 -195 L 34.800781 -195 L 34.800781 -6.601562 L 10.800781 -6.601562 L 10.800781 0 L 182.699219 0 Z M 182.699219 -62.699219 "/></g></g></g><g fill="#ffffff" fill-opacity="1"><g transform="translate(1433.395154, 406.728292)"><g><path d="M 181.199219 -7.5 C 176.699219 -4.199219 173.398438 -2.699219 168.898438 -2.699219 C 163.199219 -2.699219 156.300781 -3.898438 154.5 -15.898438 C 152.699219 -27.898438 153.300781 -43.199219 152.398438 -60 C 151.199219 -79.199219 144.601562 -87.898438 131.398438 -96.601562 C 126.601562 -99.601562 118.199219 -102.601562 112.800781 -105.300781 L 112.800781 -106.199219 C 133.199219 -109.5 155.699219 -121.5 155.699219 -147 C 155.699219 -182.101562 126.300781 -201.601562 78 -201.601562 L 10.800781 -201.601562 L 10.800781 -195 L 34.800781 -195 L 34.800781 -6.601562 L 10.800781 -6.601562 L 10.800781 0 L 89.398438 0 L 89.398438 -6.601562 L 65.398438 -6.601562 L 65.398438 -103.5 L 94.5 -103.5 C 109.5 -103.5 121.800781 -97.199219 123 -79.5 C 123.898438 -64.199219 123.601562 -46.800781 124.800781 -29.699219 C 126.300781 -9 142.5 3.898438 165.300781 3.898438 C 174.601562 3.898438 178.800781 1.5 184.199219 -2.101562 Z M 126.300781 -153.300781 C 126.300781 -123 113.398438 -110.101562 93.300781 -110.101562 L 65.398438 -110.101562 L 65.398438 -195 L 80.699219 -195 C 114.601562 -195 126.300781 -180.601562 126.300781 -153.300781 Z M 126.300781 -153.300781 "/></g></g></g><path fill="#ffffff" d="M 25.683594 496.050781 L 25.683594 422.324219 L 1626.046875 422.324219 L 1626.046875 496.050781 L 25.683594 496.050781 " fill-opacity="1" fill-rule="evenodd"/><g clip-path="url(#93905c8af5)"><path stroke-linecap="butt" transform="matrix(0, -0.698243, -0.698243, 0, 1629.403487, 501.640809)" fill="none" stroke-linejoin="miter" d="M 8.005854 2296.794839 L 113.594609 2296.794839 L 113.594609 4.807229 L 8.005854 4.807229 Z M 8.005854 2296.794839 " stroke="#000000" stroke-width="4.799" stroke-opacity="1" stroke-miterlimit="2.613"/></g></svg>